# xmcd
#
# Track frame offsets:
#	150
#	15252
#	28965
#	46865
#	58965
#	72147
#	92737
#	109080
#	123255
#	139830
#
# Disc length: 2129 seconds
#
# Revision: 1
# Processed by: cddbd v1.5.2PL0 Copyright (c) Steve Scherf et al.
# Submitted via: audiograbber 1.83.01
#
DISCID=84084f0a
DTITLE=Nashville Music Company - Tanz auf dem Vulkan
DYEAR=1994
DGENRE=Country
TTITLE0=Nur mit Dir
TTITLE1=Engel in der Nacht
TTITLE2=Unten am Fluﬂ
TTITLE3=Es gibt keine Kur gegen Dich
TTITLE4=Vergib mir, dass ich Dich liebe
TTITLE5=Scherben unserer Liebe
TTITLE6=Tanz auf dem Vulkan
TTITLE7=Rot ist unsere Liebe
TTITLE8=Nie mehr allein
TTITLE9=Wenn die Lichter angeh'n
EXTD=
EXTT0=
EXTT1=
EXTT2=
EXTT3=
EXTT4=
EXTT5=
EXTT6=
EXTT7=
EXTT8=
EXTT9=
PLAYORDER=
